<svg width="512" height="512" viewBox="0 0 512 512" fill="none" xmlns="http://www.w3.org/2000/svg"><path d="M502.724 255.061c0 45.086-10.958 86.102-32.562 122.421-21.604 36.632-51.035 65.437-88.294 86.728s-78.901 31.936-125.552 31.936-88.294-10.645-125.553-31.936-66.69-50.096-88.606-86.728C20.24 340.849 9.28 300.147 9.28 255.061s10.959-85.789 32.562-121.483C63.447 97.885 92.88 69.08 130.45 47.79q56.358-31.936 124.926-31.936c45.713 0 89.233 10.645 126.179 31.935 37.259 21.291 66.69 49.783 88.294 85.789s32.562 76.396 32.562 121.483z" fill="#47b772"/><path d="M116.361 256.939c0-24.422 5.322-45.712 16.594-64.498 11.584-19.412 26.613-34.441 46.651-45.712 18.786-10.646 40.077-16.282 64.499-16.908h144.338l-47.278 35.067c8.767 8.141 16.281 17.534 22.856 28.179 11.272 18.786 16.594 39.45 16.594 63.872s-5.322 44.773-16.281 62.62c-11.584 18.786-26.926 33.814-47.277 45.399-20.039 11.585-42.582 17.22-68.569 17.22s-49.783-5.635-69.508-16.907c-20.038-11.584-35.693-26.3-47.278-45.712-10.645-17.847-15.968-38.198-15.968-62.62z" fill="#fff"/><path d="M193.061 273.532c9.683 0 17.533-7.85 17.533-17.533s-7.85-17.534-17.533-17.534-17.534 7.85-17.534 17.534 7.85 17.533 17.534 17.533m57.605 0c9.684 0 17.534-7.85 17.534-17.533s-7.85-17.534-17.534-17.534-17.533 7.85-17.533 17.534 7.85 17.533 17.533 17.533m57.617 0c9.684 0 17.534-7.85 17.534-17.533s-7.85-17.534-17.534-17.534-17.533 7.85-17.533 17.534 7.85 17.533 17.533 17.533" fill="#47b772"/></svg>
